# xmcd CD database file
#
# Track frame offsets:
#	150
#	1296
#	22241
#	39036
#	69427
#	87708
#	107899
#	134360
#	148144
#	172264
#	181339
#	201811
#	224836
#	246524
#
# Disc length: 3548 seconds
#
# Revision: 1
# Processed by: cddbd v1.5.2PL0 Copyright (c) Steve Scherf et al.
# Submitted via: CDex 1.70beta2
#
DISCID=db0dda0e
DTITLE=Jean-Luc Ponty - The Acatama Experience
DYEAR=2007
DGENRE=Jazz
TTITLE0=Intro
TTITLE1=Parisian Thoroughfare
TTITLE2=Premonition
TTITLE3=Point Of No Return
TTITLE4=Back In The 60's
TTITLE5=Without Regrets
TTITLE6=Celtic Steps
TTITLE7=Desert Crossing
TTITLE8=Last Memories Of Her
TTITLE9=The Acatama Experience
TTITLE10=On My Way To Bombay
TTITLE11=Still In Love
TTITLE12=Euphoria
TTITLE13=To And Fro
EXTD=YEAR: 2007
EXTT0=
EXTT1=
EXTT2=
EXTT3=
EXTT4=
EXTT5=
EXTT6=
EXTT7=
EXTT8=
EXTT9=
EXTT10=
EXTT11=
EXTT12=
EXTT13=
PLAYORDER=
